<?xml version="1.0" encoding="utf-8"?>
<!-- Generator: Adobe Illustrator 25.2.3, SVG Export Plug-In . SVG Version: 6.00 Build 0)  -->
<svg version="1.1" id="Layer_1" xmlns:vectornator="http://vectornator.io"
	 xmlns="http://www.w3.org/2000/svg" xmlns:xlink="http://www.w3.org/1999/xlink" x="0px" y="0px" viewBox="0 0 1033.6 828.1"
	 style="enable-background:new 0 0 1033.6 828.1;" xml:space="preserve">
<style type="text/css">
	.st0{fill:#4DFF00;stroke:#000000;stroke-width:0.1;stroke-linejoin:round;}
	.st1{fill:#FF00F5;}
</style>
<path class="st0" d="M9.5,335.6l156.8,156.8h235.2V335.6H9.5z"/>
<path class="st0" d="M558.4,335.6v392.1l156.8-156.8v-78.4h78.4l156.8-156.8H558.4z"/>
<path class="st0" d="M9.5,570.9l156.8,156.8H480L323.2,570.9H9.5z"/>
<path class="st1" d="M911.3,335.7h39.2L793.6,492.5h-39.2L911.3,335.7z"/>
<polygon class="st0" points="401.6,100.4 558.4,257.2 872,257.2 1028.9,100.4 "/>
<path class="st0" d="M9.5,100.4l156.8,156.8H480L323.2,100.4H9.5z"/>
<g>
	<path class="st1" d="M506.6,621.8c0,3.6,0,5.1-2.3,7.9l-3.3,3.8c-3.1,3.5-5.1,4.5-9.8,4.5l-16.9,0.1c-4.7,0-7.4-0.6-10.5-4.2
		l-2.7-3.1c-3.6-4.1-3.7-6.1-3.7-9.6l0-8c0-4.3,0.4-6.3,3.1-9.7l2.8-3.6c3.2-4,6.5-4.6,11.4-4.6l7,0c5,0,6.5,0.8,6.5,6l0.1,28.1
		l2.9,0c0.8,0,1.9-0.6,2.5-1.3l2.4-2.2c1.3-1.2,1.6-2.9,1.6-5.8l-0.1-18.8c0-2.9,0.6-6,4.3-6c3.8,0,4.4,3.4,4.4,6L506.6,621.8z
		 M479.7,629.3l-0.1-25.4l-5.3,0c-1.6,0-3-0.1-4.1,1.1l-2.9,3.4c-1,1.1-1.1,2.8-1.1,4.2l0,7.4c0,1.6,0,3,1,4.5l2.2,3
		c0.8,1.1,1.5,1.8,4,1.8L479.7,629.3z"/>
	<path class="st1" d="M435.4,573.7l-0.2-40.5c0-2.4,1.3-4.6,4.5-4.6c3.3,0,4.6,2.2,4.6,4.5l0.2,31.4l14-0.1l-0.1-22.4
		c0-2.4,1.3-4.6,4.5-4.6s4.6,2.2,4.6,4.5l0.1,22.4l34.1-0.2c2.9,0,4.6,1.3,4.6,4.5c0,3.3-1.6,4.6-4.5,4.6L435.4,573.7z"/>
	<path class="st1" d="M497.1,480.6l0-6.6c0-2.9,0.6-6,4.3-6c3.8,0,4.4,3.4,4.4,6l0.1,22.3c0,2.6-0.5,6-4.3,6c-3.7,0-4.4-3.1-4.4-6
		l0-6.9l-49.7,0.3l0,6.9c0,2.6-0.5,6-4.3,6c-3.7,0-4.4-3.1-4.4-6l0-9.2c0-5,0.9-6.5,6.1-6.5L497.1,480.6z"/>
	<path class="st1" d="M465.2,426.4c0,2.6-0.5,6-4.3,6c-3.7,0-4.4-3.1-4.4-6l-0.1-12c0-4.6,0.4-7.8,3.9-11.3c3.4-3.4,6-3.9,10.4-4
		l29.7-1.1c2.6-0.1,5.1,1.2,5.1,4.1c0,2.3-1.9,4.6-4.4,4.5l3.1,6c1.3,2.5,1.3,2.5,1.3,5.4l0,8.4c0,3.9-0.4,6.8-3.1,10
		c-3,3.7-6.2,4.6-10.7,4.6l-3.8,0c-4.2,0-6.8-1-9.8-4.2c-2.7-3-3.3-6.4-3.3-10.2l-0.1-18.8l-2,0c-6.6,0-7.7,1.5-7.6,7.8L465.2,426.4
		z M483.6,426.4c0,2.4,0.7,5.8,3.9,5.8l5.8,0c2.9,0,3.5-3.6,3.5-5.7l0-9.7l-5.1-9.6l-1.9,0c-4.8,0-6.3,1.4-6.3,6.2L483.6,426.4z"/>
	<path class="st1" d="M472.5,375.4c-4.1,0-7.8-1.1-9.2-3l-5-6.4c-1.5-1.8-2.1-3.2-2.1-5.5l0-8.5c0-2.4,1.7-5.2,4.3-8.6l1.7-2.2l-1,0
		c-2.7,0-5.1-1.4-5.1-4.4c0-3.8,3.2-4.3,6.1-4.3l42.8-0.2c7.9,0,9.6,0.6,12.7,4.2l2.5,2.9c3.2,3.8,3.8,6,3.8,10.9l0.1,14.5
		c0,2.6-0.5,6-4.3,6c-3.7,0-4.4-3.1-4.4-6l-0.1-16.1c0-1.8-0.8-3-2-4.4l-2-2.2c-0.7-0.7-2-1.3-3.7-1.3l-12,0.1l1.8,1.8
		c2,2,4.3,4.7,4.3,7.2l0.1,10.3c0,1.8-0.3,3.9-2.6,6.6l-4.9,5.5c-2.4,2.6-4.6,2.8-8.2,2.8L472.5,375.4z M484.5,366.6
		c1.8,0,3.7-0.1,4.6-1.1l2.9-3.7c0.5-0.6,0.8-1.5,0.8-2.6l0-6.4c0-1.1-0.9-2.4-2.3-4l-5.6-6.7c-0.6-0.6-1.7-0.9-2.9-0.9l-6.4,0
		c-1.2,0-2.4,0.3-2.9,0.9l-5.5,6.8c-1.4,1.6-2.3,2.9-2.3,4l0,6.4c0,1.1,0.3,1.9,0.8,2.5l2.9,3.6c0.8,1,2.7,1.1,4.6,1.1L484.5,366.6z
		"/>
</g>
</svg>
